<svg version="1.2" baseProfile="tiny-ps" xmlns="http://www.w3.org/2000/svg" viewBox="0 0 229 40" width="229" height="40">
	<title>navbar-logo (1)-svg</title>
	<style>
		tspan { white-space:pre }
	</style>
	<path id="My Recipe Book " fill="#ffd400" aria-label="My Recipe Book"  d="M48.48 15.97C48.1 18.1 46.97 24.46 50.06 24.46C51.98 24.46 54.93 21.28 55.97 19.69C56.13 19.45 56.29 19.21 56.34 18.94C56.39 18.7 56.15 18.52 55.94 18.52C55.61 18.52 55.35 18.79 55.16 19.03C54.14 20.17 52.53 22.72 50.88 22.72C49.68 22.72 50.02 19.9 50.18 19.03C50.67 16.3 51.46 13.6 52.37 10.93C52.68 10.03 53 9.13 53.16 8.23C53.25 7.72 53.39 6.97 52.7 6.97C52.49 6.97 52.18 7.03 51.95 7.12C51.18 7.42 50.84 8.62 50.57 9.31C50.13 10.39 49.34 11.41 48.71 12.43C47.32 14.62 45.88 16.75 44.38 18.88C43.37 20.32 42.36 21.76 41.24 23.14C40.97 23.44 40.23 24.4 39.84 24.4C39.36 24.4 39.68 22.45 39.9 21.25C42.31 8.53 42.42 7.9 42.51 7.39C42.72 6.28 42.79 4.9 42.35 4.66C42.13 4.54 41.81 4.48 41.54 4.48C40.94 4.48 39.17 5.17 39.04 5.89C39.03 5.95 39.02 6.01 39.03 6.07C39.16 6.88 39.07 7.69 38.92 8.53C38.23 12.31 32.25 26.71 27.45 26.71L26.19 26.56C25.86 26.56 25.57 26.83 25.51 27.16C25.38 27.88 26.21 27.94 26.75 27.94C31.67 27.94 35.23 20.56 37.33 16.24C37.37 16.18 37.48 15.94 37.54 15.94C37.6 15.94 37.55 16.18 37.55 16.21C37.03 19.06 36.25 23.5 36.83 26.11C36.97 26.8 37.4 27.43 38.21 27.43C41.3 27.43 47.93 16.06 48.47 15.88C48.49 15.91 48.49 15.94 48.48 15.97ZM54.24 37.42C56.16 37.42 58.06 35.89 59.33 34.36C63.1 29.8 64.41 23.59 65.38 18.22C65.51 17.5 65.93 15.22 65.51 14.89C65.35 14.77 65.16 14.68 64.95 14.68C64.47 14.68 64.05 15.19 63.72 15.52C61.94 17.35 60.27 19.3 58.35 20.95C57.92 21.31 56.43 22.57 55.95 22.57C55.65 22.57 55.73 22.12 55.77 21.94C55.96 20.86 57.27 18.28 57.88 17.23C58.15 16.75 58.75 15.94 58.84 15.43C58.97 14.74 58.44 14.2 57.78 14.2C57.21 14.2 56.81 14.56 56.48 15.04C56.24 15.4 56.08 15.79 55.88 16.18C55.03 17.89 54.18 19.78 53.85 21.58C53.66 22.66 53.69 23.98 55.04 23.98C57.02 23.98 61.8 19.45 63.09 17.8C62.87 19.36 62.62 20.89 62.33 22.45C62.23 23.02 62.13 23.59 61.99 24.16C58.53 26.2 53.04 30.16 52.31 34.18C52.02 35.77 52.41 37.42 54.24 37.42ZM61.61 25.45C60.86 28.06 59.14 32.26 57.2 34.36C56.53 35.05 55.4 36.16 54.44 36.16C53.48 36.16 53.48 34.99 53.62 34.24C54.26 30.7 58.69 27.49 61.61 25.45ZM90.3 10.54C91.15 5.89 86.16 3.94 82.37 3.49C82.05 3.46 81.73 3.43 81.4 3.43C80.59 3.43 80.36 3.49 79.9 4.24C79.81 4.39 79.72 4.57 79.69 4.72C79.55 5.5 81.26 5.47 81.76 5.53C84.77 5.83 88.85 7.78 88.2 11.38C87.45 15.49 81.86 17.68 78.35 18.49C79.06 15.91 80.01 13.36 81.15 10.87C81.56 9.97 82.73 7.99 82.87 7.21C83.01 6.43 82.52 6.16 81.8 6.16C81.53 6.16 81.25 6.19 80.99 6.31C80.13 6.73 78.98 9.46 78.98 9.46C76.44 15.34 75.07 19.9 73.97 25.93C73.88 26.44 73.92 27.01 74.55 27.01C74.79 27.01 75.05 26.95 75.27 26.86C76.15 26.47 76.35 26.02 76.46 25.42L76.6 24.52C76.76 23.65 77.13 22.09 77.55 21.28C78.71 22.3 84.3 25.06 85.89 25.06C86.79 25.06 87.56 24.43 87.73 23.53C87.82 23.02 86.55 23.08 86.23 23.02C85.97 22.99 85.71 22.9 85.46 22.81C83.1 22.06 80.77 21.04 78.95 19.48C83.04 18.79 89.49 15.01 90.3 10.54ZM91.2 25.39C94.47 25.39 97.79 22.99 99.84 20.26C100.08 19.93 100.21 19.75 100.28 19.36C100.31 19.15 100.1 19.03 99.92 19.03C99.5 19.03 99.11 19.51 98.87 19.81C97.31 21.82 94.91 23.98 92.39 23.98C90.98 23.98 90.59 23.14 90.83 21.79C90.91 21.37 91.05 20.95 91.21 20.53C93.16 19.87 96.56 16.69 96.93 14.68C97.12 13.63 96.66 12.88 95.58 12.88C92.34 12.88 89.1 18.61 88.61 21.31C88.22 23.44 88.83 25.39 91.2 25.39ZM95.17 14.29C95.56 14.29 95.61 14.65 95.55 14.98C95.26 16.57 92.94 18.61 91.51 19.39C91.88 18.34 93.97 14.29 95.17 14.29ZM101.68 25.66C105.22 25.66 108.74 23.14 110.97 20.11C111.13 19.9 111.29 19.69 111.32 19.48C111.37 19.21 111.2 19 110.93 19C110.54 19 110.12 19.48 109.89 19.78C108.21 21.94 105.7 24.01 103.03 24.01C101.23 24.01 100.92 22.42 101.2 20.89C101.52 19.12 103.66 14.29 105.94 14.29C106.63 14.29 106.54 14.92 106.45 15.46C106.29 16.33 105.62 17.05 105.53 17.5C105.5 17.71 105.63 17.8 105.81 17.8C107.04 17.8 107.57 16.18 107.74 15.25C108.03 13.66 107.23 12.97 105.73 12.97C102.1 12.97 99.31 17.44 98.74 20.56C98.31 22.93 98.92 25.66 101.68 25.66ZM111.96 21.43C112.12 20.53 112.38 19.63 112.72 18.76C113.09 17.86 114.05 16.39 114.19 15.58C114.28 15.1 114.07 14.92 113.62 14.92C112.36 14.92 111.67 15.76 111.11 16.84C110.59 17.89 110.02 19.42 109.81 20.53C109.5 22.27 109.24 25.66 111.61 25.66C113.74 25.66 116.87 22.48 118.3 20.86C118.6 20.53 119.32 19.72 119.39 19.33C119.45 19.03 119.51 18.67 119.12 18.67C118.79 18.67 118.49 19.03 118.26 19.3C117.1 20.71 114.13 24.16 112.51 24.16C111.49 24.16 111.83 22.12 111.96 21.43ZM115.18 10.33C114.37 10.33 113.62 11.17 113.48 11.92C113.37 12.52 113.66 13.06 114.29 13.06C115.1 13.06 115.88 12.25 116.02 11.47C116.13 10.87 115.81 10.33 115.18 10.33ZM119.85 22.9C120.09 22.06 120.76 19.54 121.07 19.15C121.95 17.95 125.18 14.56 126.56 14.56C127.31 14.56 127.3 15.43 127.19 16.03C126.83 18.04 123.87 23.38 121.44 23.38C120.6 23.38 120.41 22.96 120.05 22.96C119.96 22.96 119.9 22.99 119.82 23.05ZM124 25.51C127.51 25.51 130.35 23.38 132.65 20.47C132.88 20.2 133.01 19.99 133.08 19.63C133.14 19.3 133 19.09 132.67 19.09C132.31 19.09 132.03 19.6 131.84 19.84C130.13 22.15 127.23 24.4 124.44 24.4C124.14 24.4 123.84 24.37 123.56 24.31C124.11 24.22 124.65 23.89 125.11 23.5C126.98 21.97 128.62 18.76 129.01 16.6C129.3 14.98 129.07 13.3 127.15 13.3C125.23 13.3 122.45 16.06 121.14 17.47C121.33 16.78 121.6 16.09 121.73 15.4C121.86 14.68 121.34 13.57 120.53 13.57C119.48 13.57 119.28 15.19 119.08 15.91C117.8 20.5 117.62 21.34 117.43 21.7C115.2 26.02 112.17 32.14 111.35 36.64C111.17 37.63 111.06 39.73 112.44 39.73C113.46 39.73 114.39 38.56 114.87 37.75C116.65 34.72 118.36 28.48 119.37 24.7L119.57 23.95C120.21 25.21 122.59 25.51 124 25.51ZM117.3 24.58C116.46 28 115.51 31.45 114.35 34.84C114.22 35.23 113.24 38.14 112.73 38.14C112.37 38.14 112.57 37.03 112.61 36.79C113.18 33.67 115.57 27.46 117.3 24.58ZM133.86 25.39C137.13 25.39 140.45 22.99 142.5 20.26C142.74 19.93 142.87 19.75 142.94 19.36C142.97 19.15 142.76 19.03 142.58 19.03C142.16 19.03 141.77 19.51 141.53 19.81C139.97 21.82 137.57 23.98 135.05 23.98C133.64 23.98 133.25 23.14 133.49 21.79C133.57 21.37 133.71 20.95 133.87 20.53C135.82 19.87 139.22 16.69 139.59 14.68C139.78 13.63 139.32 12.88 138.24 12.88C135 12.88 131.76 18.61 131.27 21.31C130.88 23.44 131.49 25.39 133.86 25.39ZM137.83 14.29C138.22 14.29 138.27 14.65 138.21 14.98C137.92 16.57 135.6 18.61 134.17 19.39C134.54 18.34 136.63 14.29 137.83 14.29ZM156.87 13.87C159 13.36 164.44 10.66 164.87 8.29C165.35 5.68 158.9 5.5 157.07 5.5C157.46 4.51 157.88 3.16 158.44 2.23C158.48 2.17 158.53 2.11 158.54 2.02C158.59 1.78 158.23 1.78 158.08 1.78C157.69 1.78 157.31 1.87 156.92 2.02C156.15 2.32 155.62 2.77 155.24 3.52C154.9 4.21 154.6 4.9 154.32 5.59C153.26 5.65 152.12 5.8 151.11 5.95C151.11 5.95 149.91 6.1 149.8 6.7C149.75 7 149.91 7.09 150.18 7.09C150.48 7.09 150.83 7 151.13 6.97C152.02 6.85 152.93 6.79 153.84 6.73C152.15 10.93 150.72 15.19 149.45 19.48C149.08 20.71 148.74 21.94 148.42 23.17C148.2 24.07 147.93 24.91 147.77 25.75C147.69 26.2 148.38 26.23 148.68 26.23C149.76 26.23 150.05 26.11 150.69 25.06C153.99 25.06 162.23 22.66 162.96 18.64C163.47 15.85 158.93 14.38 156.87 13.87ZM153.74 14.56C155.89 14.92 161.62 16.12 161.09 19.03C160.61 21.64 153.34 23.17 151.27 23.35C151.31 22.96 151.38 22.57 151.45 22.18C151.92 19.63 152.89 17.08 153.74 14.56ZM163.04 8.65C162.6 11.05 156.23 12.73 154.26 13.18C155.01 11.02 155.74 8.83 156.59 6.67C157.85 6.67 163.36 6.88 163.04 8.65ZM164.7 21.58C164.37 23.38 164.7 25.57 166.86 25.57C167.7 25.57 168.57 25.24 169.34 24.79C171.9 23.26 173.35 20.38 173.83 17.74C174.16 15.94 173.98 13.63 171.76 13.63C168.19 13.63 165.25 18.58 164.7 21.58ZM171.4 15.61C172.69 15.61 172.65 17.32 172.47 18.31C172.13 20.14 171.1 22.36 169.39 23.53C168.94 23.83 168.41 24.1 167.9 24.1C166.67 24.1 166.68 22.6 166.85 21.64C167.18 19.84 169.15 15.61 171.4 15.61ZM175.74 21.58C175.41 23.38 175.74 25.57 177.9 25.57C178.74 25.57 179.61 25.24 180.38 24.79C182.94 23.26 184.39 20.38 184.87 17.74C185.2 15.94 185.02 13.63 182.8 13.63C179.23 13.63 176.29 18.58 175.74 21.58ZM182.44 15.61C183.73 15.61 183.69 17.32 183.51 18.31C183.17 20.14 182.14 22.36 180.43 23.53C179.98 23.83 179.45 24.1 178.94 24.1C177.71 24.1 177.72 22.6 177.89 21.64C178.22 19.84 180.19 15.61 182.44 15.61ZM189.4 20.71C189.96 20.92 190.45 21.22 190.96 21.52L194.63 23.65C194.9 23.8 195.17 23.95 195.5 23.95C195.77 23.95 196.14 23.89 196.21 23.53C196.31 22.96 195.89 22.48 195.52 22.18C194.53 21.37 193.39 20.71 192.29 20.02C191.61 19.6 190.97 19.15 190.22 18.85C192.47 17.02 194.73 15.19 197.1 13.51C197.48 13.24 198.03 12.85 198.11 12.4C198.17 12.07 197.94 11.71 197.61 11.71C197.22 11.71 196.71 12.19 196.4 12.43C194.25 14.17 192.06 15.82 189.99 17.65C191.01 14.17 192.27 10.72 193.7 7.3C194.64 5.11 195.16 3.88 195.8 2.71C196.02 2.29 196.25 1.84 196.34 1.39C196.43 0.88 196.24 0.58 195.73 0.58C194.35 0.58 193.44 1.66 192.86 2.86C191.57 5.5 190.62 8.26 189.7 10.96C188.47 14.59 187.48 18.25 186.81 21.91C186.45 23.92 186.08 25.93 186.09 27.37C186.1 27.82 186.21 28.21 186.72 28.21C187.47 28.21 187.65 27.34 187.75 26.8C188.12 24.79 188.97 21.94 189.4 20.71Z" />
</svg>